<?xml version="1.0" encoding="UTF-8"?>
<svg id="Layer_1" data-name="Layer 1" xmlns="http://www.w3.org/2000/svg" version="1.1" viewBox="0 0 554.4 784.9">
  <defs>
    <style>
      .cls-1 {
        fill: #d5956c;
      }

      .cls-1, .cls-2, .cls-3, .cls-4, .cls-5, .cls-6, .cls-7, .cls-8, .cls-9, .cls-10 {
        stroke-width: 0px;
      }

      .cls-2 {
        fill: #3ec5ea;
      }

      .cls-3 {
        fill: #ccd5d8;
      }

      .cls-4 {
        fill: #fdfdfd;
      }

      .cls-5 {
        fill: #c98553;
      }

      .cls-6 {
        fill: #bb6e3f;
      }

      .cls-7 {
        fill: #814c30;
      }

      .cls-8 {
        fill: #83dcf0;
      }

      .cls-9 {
        fill: #653d26;
      }

      .cls-10 {
        fill: #b5bfc3;
      }
    </style>
  </defs>
  <path class="cls-4" d="M136.4,2.8c0,17.3.5,34.8,0,52.2,0,31,4.3,40.2-7.9,68.1h0l-.7.6c-29.6,24.7-46.8,17.3-84.1,17.3l-34.3-.3c-3.1,0-6.3.6-9.4.3,1-.2,1.8-.5,2.7-.9,4.1-14.9,27.4-32.3,38.4-43.2l53.1-52c9.8-9.8,34.5-32.2,42.2-42.1Z"/>
  <path class="cls-2" d="M497.1,2.8c15.3-1.1,29-.3,41.2,10.2,20.2,17.4,15,43.4,15,67.2v622.3c0,12.9.7,26.3-.3,39.2-1.7,20.3-18.3,40.8-39.6,42-6.6.4-13.2-.2-19.8-.1-7.1-.3-14.1.7-21.3,0,34.6-17.1,31.5-37.4,31.5-73V161.5c0-30,8.3-78-31.5-84.3v-2.2c.6-29.3-8.2-58.8,24.8-72.2Z"/>
  <path class="cls-3" d="M166.9,0h274.9c9.7,0,47.8-2,55.3,2.8-33,13.5-24.2,42.9-24.8,72.2v2.2c0,44.8-25,45.8-61.9,45.8h-243.5c-4.3-.4-8.9,0-13.2,0h-25.2c12.3-27.8,8-37,7.9-68,.5-17.3,0-34.8,0-52.2C141.4-2.2,159.9,0,166.9,0Z"/>
  <path class="cls-10" d="M136.4,2.8C141.4-2.2,159.9,0,166.9,0c.7,18.2,0,36.7,0,54.9-10,.6-20.5,0-30.5,0,.5-17.3,0-34.8,0-52.2Z"/>
  <path class="cls-4" d="M212.5,54.9h259.9c0,6.3-1.1,13.9,0,20.1v2.2c0,44.8-25,45.8-61.9,45.8h-243.5V54.9c12.4.7,33.2.9,45.6,0Z"/>
  <path class="cls-8" d="M472.3,77.2c39.8,6.3,31.5,54.3,31.5,84.3v549.1c0,35.6,3.1,55.9-31.5,73,7.2.7,14.2-.3,21.3,0-18.3,3-66,0-87.2,0H60.5c-7.2,0-14.8.3-22-.7C-9.8,776.3,0,719,0,684.2v-383.4c0-45.1.5-90.3,0-135.5.3-8.1,0-16.3,0-24.4,3.1.3,6.3-.3,9.4-.3l34.3.3c37.3,0,54.5,7.4,84.1-17.3l.7-.6h25.2c4.3,0,8.9-.4,13.2,0h243.5c36.9,0,61.9-1,61.9-45.8Z"/>
  <path class="cls-2" d="M128.5,123c12.8.2,25.6,0,38.4,0-12.6,16.1-39.6,42-59.1,44.3-8.1.9-106.1,1-107.3.3l-.5-2.3c.3-8.1,0-16.3,0-24.4,3.1.3,6.3-.3,9.4-.3l34.3.3c37.3,0,54.5,7.4,84.1-17.3l.7-.6Z"/>
  <g>
    <path class="cls-2" d="M96.1,541.9c3.5-.5,7.5,0,11.1,0h311.8c7.4,0,15-.3,22.4,0,17.8.6,20,22.6,3.1,25.3H139.1c-8.8,0-42.4,2.3-48.7-2-10.3-7-6.4-22,5.7-23.2Z"/>
    <path class="cls-2" d="M108.6,685h300.4c8.1,0,36.8-2.7,42.8,2.3,5.4,4.5,5.1,14.7.4,19.6-4.7,4.8-13.5,3.6-19.6,3.5H136.8c-9.1,0-40.8,2.9-47.7-2.5-5.3-4.2-6-13.5-1.5-18.5,4.6-5.2,14.6-4.1,20.9-4.3Z"/>
    <path class="cls-2" d="M141.7,469.4h267.3c9.3,0,36.1-3.1,43.2,3.5,6.8,6.3,2.5,16.3-2.9,22-5.3.6-10.9,0-16.3,0h-32.9s-268.1,0-268.1,0c-13.9,0-46.3,6.2-47-12.4-.8-19.6,41.7-12.6,56.7-13.1Z"/>
    <path class="cls-2" d="M223.6,613.6h193.5c12.6,0,38.3-5.4,38.9,13.8.4,13.7-15.6,12-24.5,12h-113.1s-197.3,0-197.3,0c-11.5,0-38.6,5.1-35.5-14.5.8-5.1,3.4-8.4,7.5-11.3h130.6Z"/>
  </g>
  <g>
    <path class="cls-7" d="M286.8,224.6l.7-.3c12.5-4.9,38.5-25.1,48.1-26.8,14.6-2.6,36.7,20.4,51.7,25.9,9,3.3,19.5-.7,28.3,4.1,16.7,9.1,12.7,37.7,18.7,53.2,3.4,8.9,10.1,17,15,25.1-2.6,4.7-2.1,10.5-4.6,15.3-4.5,8.6-12.3,15.1-17.6,23.2-5,7.8-11.5,23.7-16.3,28.9-10.4,11.3-30.1,13.1-43.8,18.5-8.1,3.2-21.8,11.9-29.4,13-12.8-5.2-29.7-11.8-40.4-20.3,1.8-2.3,3.7-4.5,5.6-6.7,29.8-38.6,28.1-95.2-.3-134-4.9-6.7-10.6-12.5-15.7-19Z"/>
    <path class="cls-6" d="M365.3,272.1c-.2-18.5,18.8-22.6,30.3-11.1-3.1-.1-6.2-.3-9.3,0-11.2,1.7-16.4,14.8-19.9,13.1l-1-2Z"/>
    <path class="cls-9" d="M297.2,384.4c1.8-2.3,3.7-4.5,5.6-6.7,5.5,1.3,38.1,20.1,34.8,27-12.8-5.2-29.7-11.8-40.4-20.3Z"/>
    <path class="cls-9" d="M386.3,261c3.1,0,6.2.2,9.3,0,11.8,12.5,4.4,35.7-14.2,34.8-10.8-.5-21.3-15.4-16.7-25.7l.6,2,1,2c3.5,1.8,8.7-11.3,19.9-13.1Z"/>
    <path class="cls-9" d="M365.3,329.5c4.2-15.9,22.4-20.1,30.3-9.6,5.5.9,7,14.2,6.3,18.4-4.8,28.5-45.7,14.8-36.8-8.8h.2Z"/>
    <path class="cls-6" d="M365.3,329.5c4.2-15.9,22.4-20.1,30.3-9.6-16.8,2.6-18.7,3-27.2,17.2-1.9-2.7-2.9-4.3-3-7.7Z"/>
    <path class="cls-5" d="M194.9,197.3c34.4-.5,64.8,1.7,91.9,27.3,5.1,6.5,10.8,12.3,15.7,19,28.3,38.9,30.1,95.4.3,134-1.9,2.2-3.8,4.4-5.6,6.7-4.1,4.1-10.7,8.7-13.8,12.1-54.8,44.5-140.1,23.2-169.9-40.7-4.8-8.7-7.1-18.8-9.4-28.4-10.7-66.9,26.3-114.1,90.7-130.1Z"/>
    <path class="cls-7" d="M248.9,325.2c20.3-8.1,35.6,28.1,4.8,40.7-27.5-1.4-33.1-38.7-4.8-40.7Z"/>
    <path class="cls-6" d="M247,327.4c7.5,1.5-8.9,16.6-10.6,19.3-.4.2-.9.2-1.4.3l-.7-.7c-2.4-8.8,4.7-16.7,12.7-18.9Z"/>
    <path class="cls-7" d="M134.3,246.9c4.3-12,14.3-14.6,26.2-13.3,5.9,3,11.2,6.6,13.4,13.2,9,27.1-41.8,45.6-39.6,0Z"/>
    <path class="cls-6" d="M150.5,236.4c4.4,3.1-8.8,15.4-11.1,18-5.8-1.3.4-15.6,11.1-18Z"/>
    <path class="cls-7" d="M300.5,314.6c-32.3,7.3-38.6-43.9,0-41,17.5,9.6,20.3,33.2,0,41Z"/>
    <path class="cls-6" d="M288.8,277.3c9.1.9-4.4,12.5-7.6,18.9l-.6.2c-7.6-1.7-.5-15.3,8.2-19.1Z"/>
    <path class="cls-7" d="M210.5,267.9c27.8-1.8,32.6,33.4,7.8,41.3-26.9,4.7-35.9-34.8-7.8-41.3Z"/>
    <path class="cls-6" d="M206,272.1c14.7-3.4-2.5,11.9-4.6,15.5-.5.6-1,1-1.7,1.5l-1.1-.2c-5.6-6.3.7-14.9,7.3-16.8Z"/>
    <path class="cls-7" d="M150.5,305.8c24.2-6.4,31.5,37.2,2.2,40.9-26.2.5-30.1-40.8-2.2-40.9Z"/>
    <path class="cls-6" d="M143.5,309.2c12.6-1.6-1.8,12.8-4.2,16-5.9,5.1-6.4-11.6,4.2-16Z"/>
    <path class="cls-7" d="M240,214.7c16.2-8.6,30.3.7,31.8,18.8-1.6,12.7-10.5,22.1-23.9,20.1-19.9-3.1-22.9-28.1-7.8-38.9Z"/>
    <path class="cls-6" d="M247,214.7c13.7-2.3-2.5,9-7,18.8-6.4,4.5-9.6-13.9,7-18.8Z"/>
    <path class="cls-7" d="M176.6,391c-3.4-47.7,60.1-27,35.9,8.2-13.5,12.9-30.4,9.9-35.9-8.2Z"/>
    <path class="cls-6" d="M191.7,365.9c9.6-.3-4.8,15.5-6.6,18.5-9.9,0-.5-16.5,6.6-18.5Z"/>
    <path class="cls-1" d="M104.2,327.4c-10.7-66.9,26.3-114.1,90.7-130.1.7,1,36.5,13.1,41.5,14.7l-.6.9c-31.1,2.4-46.1,7.2-75.3,20.6-11.9-1.3-21.9,1.3-26.2,13.3-29.5,26.3-24.6,73.4-30.1,80.5Z"/>
    <path class="cls-6" d="M194.9,197.3c34.4-.5,64.8,1.7,91.9,27.3,5.1,6.5,10.8,12.3,15.7,19,28.3,38.9,30.1,95.4.3,134-1.9,2.2-3.8,4.4-5.6,6.7-4.1,4.1-10.7,8.7-13.8,12.1-54.8,44.5-140.1,23.2-169.9-40.7,9.2,5.8,54.1,36.9,63.1,35.3,5.5,18.1,22.4,21.1,35.9,8.2,42.2,2,82.4-34.2,88.4-75.4.4-2.5,1.9-7.5-.4-9.3,20.3-7.8,17.5-31.4,0-41l.7-.6c-.4-10.6-21.1-33.7-29.5-39.5-1.5-18.1-15.6-27.4-31.8-18.8-1.2-1.1-2.2-1.9-3.6-2.7-4.9-1.6-40.8-13.8-41.5-14.7Z"/>
    <path class="cls-9" d="M337.5,404.7c7.6-1.1,21.4-9.8,29.4-13,13.7-5.4,33.4-7.1,43.8-18.5,4.8-5.2,11.2-21.1,16.3-28.9,5.3-8.2,13.1-14.6,17.6-23.2,2.5-4.8,2-10.6,4.6-15.3,9.1,17.4-8.8,26.2-14.5,40.6-5.1,12.9-.9,43.7-14.5,50.4-12.5,6.2-36.9,8.9-53.7,15.8-7.3,3-22.5,13.5-29.1,13.9-.2-7.1,1-14.8,0-21.7Z"/>
    <path class="cls-7" d="M297.2,384.4c10.7,8.5,27.6,15,40.4,20.3,1,6.9-.2,14.7,0,21.7-17-6.5-31.3-21.5-54.2-29.9,3.1-3.4,9.7-7.9,13.8-12.1Z"/>
  </g>
</svg>